<svg width="32" height="32" viewBox="0 0 32 32" fill="none" xmlns="http://www.w3.org/2000/svg">
<g filter="url(#filter0_dd_2042_1385)">
<path d="M16 21C19.3137 21 22 18.3137 22 15C22 11.6863 19.3137 9 16 9C12.6863 9 10 11.6863 10 15C10 18.3137 12.6863 21 16 21Z" fill="#FFBC99"/>
<path d="M16 3C16.4142 3 16.75 3.33579 16.75 3.75V6.75C16.75 7.16421 16.4142 7.5 16 7.5C15.5858 7.5 15.25 7.16421 15.25 6.75V3.75C15.25 3.33579 15.5858 3 16 3Z" fill="#FFBC99"/>
<path d="M16 22.5C16.4142 22.5 16.75 22.8358 16.75 23.25V26.25C16.75 26.6642 16.4142 27 16 27C15.5858 27 15.25 26.6642 15.25 26.25V23.25C15.25 22.8358 15.5858 22.5 16 22.5Z" fill="#FFBC99"/>
<path d="M28 15C28 15.4142 27.6642 15.75 27.25 15.75H24.25C23.8358 15.75 23.5 15.4142 23.5 15C23.5 14.5858 23.8358 14.25 24.25 14.25H27.25C27.6642 14.25 28 14.5858 28 15Z" fill="#FFBC99"/>
<path d="M8.5 15C8.5 15.4142 8.16421 15.75 7.75 15.75H4.75C4.33579 15.75 4 15.4142 4 15C4 14.5858 4.33579 14.25 4.75 14.25H7.75C8.16421 14.25 8.5 14.5858 8.5 15Z" fill="#FFBC99"/>
<path d="M24.4853 6.51477C24.7782 6.80766 24.7782 7.28253 24.4853 7.57543L22.364 9.69675C22.0711 9.98964 21.5962 9.98964 21.3033 9.69675C21.0104 9.40385 21.0104 8.92898 21.3033 8.63609L23.4246 6.51477C23.7175 6.22187 24.1924 6.22187 24.4853 6.51477Z" fill="#FFBC99"/>
<path d="M10.6967 20.3033C10.9896 20.5962 10.9896 21.0711 10.6967 21.364L8.57538 23.4853C8.28248 23.7782 7.80761 23.7782 7.51472 23.4853C7.22182 23.1924 7.22182 22.7176 7.51472 22.4247L9.63604 20.3033C9.92893 20.0105 10.4038 20.0105 10.6967 20.3033Z" fill="#FFBC99"/>
<path d="M24.4853 23.4853C24.1924 23.7782 23.7175 23.7782 23.4246 23.4853L21.3033 21.364C21.0104 21.0711 21.0104 20.5963 21.3033 20.3034C21.5962 20.0105 22.0711 20.0105 22.364 20.3034L24.4853 22.4247C24.7782 22.7176 24.7782 23.1925 24.4853 23.4853Z" fill="#FFBC99"/>
<path d="M10.6967 9.69676C10.4038 9.98966 9.92893 9.98966 9.63604 9.69676L7.51472 7.57544C7.22182 7.28255 7.22183 6.80768 7.51472 6.51478C7.80761 6.22189 8.28249 6.22189 8.57538 6.51478L10.6967 8.6361C10.9896 8.929 10.9896 9.40387 10.6967 9.69676Z" fill="#FFBC99"/>
</g>
<defs>
<filter id="filter0_dd_2042_1385" x="0" y="0" width="32" height="32" filterUnits="userSpaceOnUse" color-interpolation-filters="sRGB">
<feFlood flood-opacity="0" result="BackgroundImageFix"/>
<feColorMatrix in="SourceAlpha" type="matrix" values="0 0 0 0 0 0 0 0 0 0 0 0 0 0 0 0 0 0 127 0" result="hardAlpha"/>
<feOffset dy="1"/>
<feGaussianBlur stdDeviation="2"/>
<feComposite in2="hardAlpha" operator="out"/>
<feColorMatrix type="matrix" values="0 0 0 0 0.0470588 0 0 0 0 0.0470588 0 0 0 0 0.0509804 0 0 0 0.05 0"/>
<feBlend mode="normal" in2="BackgroundImageFix" result="effect1_dropShadow_2042_1385"/>
<feColorMatrix in="SourceAlpha" type="matrix" values="0 0 0 0 0 0 0 0 0 0 0 0 0 0 0 0 0 0 127 0" result="hardAlpha"/>
<feOffset dy="1"/>
<feGaussianBlur stdDeviation="2"/>
<feComposite in2="hardAlpha" operator="out"/>
<feColorMatrix type="matrix" values="0 0 0 0 0.0470588 0 0 0 0 0.0470588 0 0 0 0 0.0509804 0 0 0 0.1 0"/>
<feBlend mode="normal" in2="effect1_dropShadow_2042_1385" result="effect2_dropShadow_2042_1385"/>
<feBlend mode="normal" in="SourceGraphic" in2="effect2_dropShadow_2042_1385" result="shape"/>
</filter>
</defs>
</svg>
