<svg width="16" height="16" viewBox="0 0 16 16" fill="none" xmlns="http://www.w3.org/2000/svg">
<path d="M9.23766 5.8125H9.25H9.26234H9.26236C9.42857 5.81249 9.57178 5.81248 9.68646 5.8279C9.80937 5.84443 9.92719 5.88169 10.0227 5.97725C10.1183 6.07282 10.1556 6.19063 10.1721 6.31354C10.1875 6.42823 10.1875 6.57144 10.1875 6.73766V9.26234C10.1875 9.42856 10.1875 9.57178 10.1721 9.68646C10.1556 9.80937 10.1183 9.92719 10.0227 10.0227C9.92719 10.1183 9.80937 10.1556 9.68646 10.1721C9.57178 10.1875 9.42856 10.1875 9.26234 10.1875H9.23766C9.07144 10.1875 8.92823 10.1875 8.81354 10.1721C8.69063 10.1556 8.57282 10.1183 8.47725 10.0227C8.38169 9.92719 8.34443 9.80937 8.3279 9.68646C8.31248 9.57178 8.31249 9.42857 8.3125 9.26236V9.26234V6.73766V6.73764C8.31249 6.57143 8.31248 6.42822 8.3279 6.31354C8.34443 6.19063 8.38169 6.07282 8.47725 5.97725C8.57282 5.88169 8.69063 5.84443 8.81354 5.8279C8.92822 5.81248 9.07143 5.81249 9.23764 5.8125H9.23766Z" fill="#2A85FF"/>
<path d="M6.73766 5.8125H6.75H6.76234H6.76236C6.92857 5.81249 7.07178 5.81248 7.18646 5.8279C7.30937 5.84443 7.42719 5.88169 7.52275 5.97725C7.61831 6.07282 7.65557 6.19063 7.6721 6.31354C7.68752 6.42823 7.68751 6.57144 7.6875 6.73766V9.26234C7.68751 9.42856 7.68752 9.57178 7.6721 9.68646C7.65557 9.80937 7.61831 9.92719 7.52275 10.0227C7.42719 10.1183 7.30937 10.1556 7.18646 10.1721C7.07178 10.1875 6.92856 10.1875 6.76234 10.1875H6.73766C6.57144 10.1875 6.42823 10.1875 6.31354 10.1721C6.19063 10.1556 6.07282 10.1183 5.97725 10.0227C5.88169 9.92719 5.84443 9.80937 5.8279 9.68646C5.81248 9.57178 5.81249 9.42857 5.8125 9.26236V9.26234V6.73766V6.73764C5.81249 6.57143 5.81248 6.42822 5.8279 6.31354C5.84443 6.19063 5.88169 6.07282 5.97725 5.97725C6.07282 5.88169 6.19063 5.84443 6.31354 5.8279C6.42822 5.81248 6.57143 5.81249 6.73764 5.8125H6.73766Z" fill="#2A85FF"/>
<path d="M8 15C4.13401 15 1 11.866 1 8C1 4.13401 4.13401 1 8 1C11.866 1 15 4.13401 15 8C15 11.866 11.866 15 8 15ZM8 16C12.4183 16 16 12.4183 16 8C16 3.58172 12.4183 0 8 0C3.58172 0 0 3.58172 0 8C0 12.4183 3.58172 16 8 16Z" fill="#2A85FF"/>
</svg>
